<mxfile host="app.diagrams.net" modified="2024-01-22T04:08:01.022Z" agent="Mozilla/5.0 (Windows NT 10.0; Win64; x64) AppleWebKit/537.36 (KHTML, like Gecko) Chrome/120.0.0.0 Safari/537.36" etag="6qYCpQ7T-j94Wv2DKqYL" version="22.1.21" type="google">
  <diagram name="Page-1" id="0783ab3e-0a74-02c8-0abd-f7b4e66b4bec">
    <mxGraphModel grid="1" page="1" gridSize="10" guides="1" tooltips="1" connect="1" arrows="1" fold="1" pageScale="1" pageWidth="850" pageHeight="1100" background="none" math="0" shadow="0">
      <root>
        <mxCell id="0" />
        <mxCell id="1" parent="0" />
        <mxCell id="1c1d494c118603dd-1" value="Activity Diagram" style="swimlane;html=1;childLayout=stackLayout;startSize=20;rounded=0;shadow=0;comic=0;labelBackgroundColor=none;strokeWidth=1;fontFamily=Verdana;fontSize=12;align=center;" vertex="1" parent="1">
          <mxGeometry x="40" y="20" width="707.21" height="1230" as="geometry" />
        </mxCell>
        <mxCell id="1c1d494c118603dd-2" value="Admin" style="swimlane;html=1;startSize=20;" vertex="1" parent="1c1d494c118603dd-1">
          <mxGeometry y="20" width="311.5" height="1210" as="geometry" />
        </mxCell>
        <mxCell id="Rxr6hjut75NhFScURJZj-2" value="" style="shape=waypoint;sketch=0;fillStyle=solid;size=6;pointerEvents=1;points=[];fillColor=none;resizable=0;rotatable=0;perimeter=centerPerimeter;snapToPoint=1;strokeWidth=15;fontStyle=0" vertex="1" parent="1c1d494c118603dd-2">
          <mxGeometry x="115" y="35" width="20" height="20" as="geometry" />
        </mxCell>
        <mxCell id="Rxr6hjut75NhFScURJZj-5" value="" style="endArrow=classic;html=1;rounded=0;entryX=0.5;entryY=0;entryDx=0;entryDy=0;exitX=0.45;exitY=1.3;exitDx=0;exitDy=0;exitPerimeter=0;strokeWidth=2;fontStyle=0" edge="1" parent="1c1d494c118603dd-2" source="Rxr6hjut75NhFScURJZj-2">
          <mxGeometry width="50" height="50" relative="1" as="geometry">
            <mxPoint x="240" y="360" as="sourcePoint" />
            <mxPoint x="125" y="90" as="targetPoint" />
          </mxGeometry>
        </mxCell>
        <mxCell id="7YNYrMvz5-aDHtMyL3fj-38" value="Buka Aplikasi" style="rounded=1;whiteSpace=wrap;html=1;" vertex="1" parent="1c1d494c118603dd-2">
          <mxGeometry x="80.25" y="90" width="90.75" height="30" as="geometry" />
        </mxCell>
        <mxCell id="7YNYrMvz5-aDHtMyL3fj-40" value="Input Username dan Passowrd" style="rounded=1;whiteSpace=wrap;html=1;" vertex="1" parent="1c1d494c118603dd-2">
          <mxGeometry x="79.88" y="175" width="91.5" height="30" as="geometry" />
        </mxCell>
        <mxCell id="7YNYrMvz5-aDHtMyL3fj-44" value="" style="whiteSpace=wrap;html=1;rounded=0;shadow=0;comic=0;labelBackgroundColor=none;strokeWidth=1;fillColor=#000000;fontFamily=Verdana;fontSize=12;align=center;rotation=90;" vertex="1" parent="1c1d494c118603dd-2">
          <mxGeometry x="-50" y="310" width="151.5" height="10" as="geometry" />
        </mxCell>
        <mxCell id="7YNYrMvz5-aDHtMyL3fj-45" value="Memilih Menu Data Kriteria" style="rounded=1;whiteSpace=wrap;html=1;" vertex="1" parent="1c1d494c118603dd-2">
          <mxGeometry x="60" y="240" width="180" height="30" as="geometry" />
        </mxCell>
        <mxCell id="7YNYrMvz5-aDHtMyL3fj-53" value="Memilih Menu Sub Kriteria" style="rounded=1;whiteSpace=wrap;html=1;" vertex="1" parent="1c1d494c118603dd-2">
          <mxGeometry x="60" y="280" width="180" height="30" as="geometry" />
        </mxCell>
        <mxCell id="7YNYrMvz5-aDHtMyL3fj-54" value="Memilih Menu Data Alternatif" style="rounded=1;whiteSpace=wrap;html=1;" vertex="1" parent="1c1d494c118603dd-2">
          <mxGeometry x="60" y="320" width="180" height="30" as="geometry" />
        </mxCell>
        <mxCell id="7YNYrMvz5-aDHtMyL3fj-55" value="Memilih Menu Data Penilaian" style="rounded=1;whiteSpace=wrap;html=1;" vertex="1" parent="1c1d494c118603dd-2">
          <mxGeometry x="60" y="360" width="180" height="30" as="geometry" />
        </mxCell>
        <mxCell id="7YNYrMvz5-aDHtMyL3fj-58" value="" style="endArrow=classic;html=1;rounded=0;entryX=0;entryY=0.5;entryDx=0;entryDy=0;exitX=0.106;exitY=0.148;exitDx=0;exitDy=0;exitPerimeter=0;" edge="1" parent="1c1d494c118603dd-2" source="7YNYrMvz5-aDHtMyL3fj-44" target="7YNYrMvz5-aDHtMyL3fj-45">
          <mxGeometry width="50" height="50" relative="1" as="geometry">
            <mxPoint x="30" y="255" as="sourcePoint" />
            <mxPoint x="400" y="320" as="targetPoint" />
          </mxGeometry>
        </mxCell>
        <mxCell id="7YNYrMvz5-aDHtMyL3fj-60" value="" style="endArrow=classic;html=1;rounded=0;entryX=0;entryY=0.5;entryDx=0;entryDy=0;exitX=0.106;exitY=0.148;exitDx=0;exitDy=0;exitPerimeter=0;" edge="1" parent="1c1d494c118603dd-2">
          <mxGeometry width="50" height="50" relative="1" as="geometry">
            <mxPoint x="29" y="294.89" as="sourcePoint" />
            <mxPoint x="60" y="294.89" as="targetPoint" />
          </mxGeometry>
        </mxCell>
        <mxCell id="7YNYrMvz5-aDHtMyL3fj-61" value="" style="endArrow=classic;html=1;rounded=0;entryX=0;entryY=0.5;entryDx=0;entryDy=0;exitX=0.106;exitY=0.148;exitDx=0;exitDy=0;exitPerimeter=0;" edge="1" parent="1c1d494c118603dd-2">
          <mxGeometry width="50" height="50" relative="1" as="geometry">
            <mxPoint x="29" y="334.89" as="sourcePoint" />
            <mxPoint x="60" y="334.89" as="targetPoint" />
          </mxGeometry>
        </mxCell>
        <mxCell id="7YNYrMvz5-aDHtMyL3fj-62" value="" style="endArrow=classic;html=1;rounded=0;entryX=0;entryY=0.5;entryDx=0;entryDy=0;exitX=0.106;exitY=0.148;exitDx=0;exitDy=0;exitPerimeter=0;" edge="1" parent="1c1d494c118603dd-2">
          <mxGeometry width="50" height="50" relative="1" as="geometry">
            <mxPoint x="29" y="374.89" as="sourcePoint" />
            <mxPoint x="60" y="374.89" as="targetPoint" />
          </mxGeometry>
        </mxCell>
        <mxCell id="7YNYrMvz5-aDHtMyL3fj-56" value="Memilih Menu Data Perhitungan" style="rounded=1;whiteSpace=wrap;html=1;" vertex="1" parent="1c1d494c118603dd-2">
          <mxGeometry x="60" y="400" width="180" height="30" as="geometry" />
        </mxCell>
        <mxCell id="7YNYrMvz5-aDHtMyL3fj-57" value="Memilih Menu Hasil Akhir" style="rounded=1;whiteSpace=wrap;html=1;" vertex="1" parent="1c1d494c118603dd-2">
          <mxGeometry x="60" y="440" width="180" height="30" as="geometry" />
        </mxCell>
        <mxCell id="7YNYrMvz5-aDHtMyL3fj-95" value="" style="whiteSpace=wrap;html=1;rounded=0;shadow=0;comic=0;labelBackgroundColor=none;strokeWidth=1;fillColor=#000000;fontFamily=Verdana;fontSize=12;align=center;rotation=90;" vertex="1" parent="1c1d494c118603dd-2">
          <mxGeometry x="-50" y="390" width="151.5" height="10" as="geometry" />
        </mxCell>
        <mxCell id="7YNYrMvz5-aDHtMyL3fj-96" value="" style="endArrow=classic;html=1;rounded=0;entryX=0;entryY=0.5;entryDx=0;entryDy=0;exitX=0.106;exitY=0.148;exitDx=0;exitDy=0;exitPerimeter=0;" edge="1" parent="1c1d494c118603dd-2">
          <mxGeometry width="50" height="50" relative="1" as="geometry">
            <mxPoint x="29" y="414.81" as="sourcePoint" />
            <mxPoint x="60" y="414.81" as="targetPoint" />
          </mxGeometry>
        </mxCell>
        <mxCell id="7YNYrMvz5-aDHtMyL3fj-97" value="" style="endArrow=classic;html=1;rounded=0;entryX=0;entryY=0.5;entryDx=0;entryDy=0;exitX=0.106;exitY=0.148;exitDx=0;exitDy=0;exitPerimeter=0;" edge="1" parent="1c1d494c118603dd-2">
          <mxGeometry width="50" height="50" relative="1" as="geometry">
            <mxPoint x="29" y="454.81" as="sourcePoint" />
            <mxPoint x="60" y="454.81" as="targetPoint" />
          </mxGeometry>
        </mxCell>
        <mxCell id="7YNYrMvz5-aDHtMyL3fj-104" value="" style="whiteSpace=wrap;html=1;rounded=0;shadow=0;comic=0;labelBackgroundColor=none;strokeWidth=1;fillColor=#000000;fontFamily=Verdana;fontSize=12;align=center;rotation=90;" vertex="1" parent="1c1d494c118603dd-2">
          <mxGeometry x="180.75" y="539.25" width="110" height="10" as="geometry" />
        </mxCell>
        <mxCell id="7YNYrMvz5-aDHtMyL3fj-98" value="Menambah Data Kriteria" style="rounded=1;whiteSpace=wrap;html=1;" vertex="1" parent="1c1d494c118603dd-2">
          <mxGeometry x="20" y="490" width="180" height="30" as="geometry" />
        </mxCell>
        <mxCell id="7YNYrMvz5-aDHtMyL3fj-99" value="Mengupdate Data Kriteria" style="rounded=1;whiteSpace=wrap;html=1;" vertex="1" parent="1c1d494c118603dd-2">
          <mxGeometry x="20" y="530" width="180" height="30" as="geometry" />
        </mxCell>
        <mxCell id="7YNYrMvz5-aDHtMyL3fj-100" value="Menghapus Data Kriteria" style="rounded=1;whiteSpace=wrap;html=1;" vertex="1" parent="1c1d494c118603dd-2">
          <mxGeometry x="20" y="570" width="180" height="30" as="geometry" />
        </mxCell>
        <mxCell id="7YNYrMvz5-aDHtMyL3fj-105" value="" style="endArrow=classic;html=1;rounded=0;exitX=1;exitY=0.5;exitDx=0;exitDy=0;strokeWidth=2;edgeStyle=orthogonalEdgeStyle;entryX=0.5;entryY=0;entryDx=0;entryDy=0;" edge="1" parent="1c1d494c118603dd-2" source="7YNYrMvz5-aDHtMyL3fj-45" target="7YNYrMvz5-aDHtMyL3fj-104">
          <mxGeometry width="50" height="50" relative="1" as="geometry">
            <mxPoint x="220" y="480" as="sourcePoint" />
            <mxPoint x="241" y="550" as="targetPoint" />
            <Array as="points">
              <mxPoint x="320" y="255" />
              <mxPoint x="320" y="544" />
              <mxPoint x="241" y="544" />
            </Array>
          </mxGeometry>
        </mxCell>
        <mxCell id="7YNYrMvz5-aDHtMyL3fj-106" value="" style="endArrow=classic;html=1;rounded=0;entryX=1;entryY=0.5;entryDx=0;entryDy=0;exitX=0.106;exitY=0.148;exitDx=0;exitDy=0;exitPerimeter=0;strokeWidth=2;" edge="1" parent="1c1d494c118603dd-2" target="7YNYrMvz5-aDHtMyL3fj-98">
          <mxGeometry width="50" height="50" relative="1" as="geometry">
            <mxPoint x="200" y="504.77" as="sourcePoint" />
            <mxPoint x="231" y="504.77" as="targetPoint" />
            <Array as="points">
              <mxPoint x="240" y="505" />
            </Array>
          </mxGeometry>
        </mxCell>
        <mxCell id="7YNYrMvz5-aDHtMyL3fj-107" value="" style="endArrow=classic;html=1;rounded=0;entryX=1;entryY=0.5;entryDx=0;entryDy=0;exitX=0.106;exitY=0.148;exitDx=0;exitDy=0;exitPerimeter=0;strokeWidth=2;" edge="1" parent="1c1d494c118603dd-2">
          <mxGeometry width="50" height="50" relative="1" as="geometry">
            <mxPoint x="200" y="544.77" as="sourcePoint" />
            <mxPoint x="200" y="545" as="targetPoint" />
            <Array as="points">
              <mxPoint x="240" y="545" />
            </Array>
          </mxGeometry>
        </mxCell>
        <mxCell id="7YNYrMvz5-aDHtMyL3fj-108" value="" style="endArrow=classic;html=1;rounded=0;entryX=1;entryY=0.5;entryDx=0;entryDy=0;exitX=0.106;exitY=0.148;exitDx=0;exitDy=0;exitPerimeter=0;strokeWidth=2;" edge="1" parent="1c1d494c118603dd-2">
          <mxGeometry width="50" height="50" relative="1" as="geometry">
            <mxPoint x="200" y="584.77" as="sourcePoint" />
            <mxPoint x="200" y="585" as="targetPoint" />
            <Array as="points">
              <mxPoint x="240" y="585" />
            </Array>
          </mxGeometry>
        </mxCell>
        <mxCell id="7YNYrMvz5-aDHtMyL3fj-141" value="" style="whiteSpace=wrap;html=1;rounded=0;shadow=0;comic=0;labelBackgroundColor=none;strokeWidth=1;fillColor=#000000;fontFamily=Verdana;fontSize=12;align=center;rotation=90;" vertex="1" parent="1c1d494c118603dd-2">
          <mxGeometry x="180.75" y="689.25" width="110" height="10" as="geometry" />
        </mxCell>
        <mxCell id="7YNYrMvz5-aDHtMyL3fj-142" value="Menambah Data Sub Kriteria" style="rounded=1;whiteSpace=wrap;html=1;" vertex="1" parent="1c1d494c118603dd-2">
          <mxGeometry x="20" y="640" width="180" height="30" as="geometry" />
        </mxCell>
        <mxCell id="7YNYrMvz5-aDHtMyL3fj-143" value="Mengupdate Data Sub Kriteria" style="rounded=1;whiteSpace=wrap;html=1;" vertex="1" parent="1c1d494c118603dd-2">
          <mxGeometry x="20" y="680" width="180" height="30" as="geometry" />
        </mxCell>
        <mxCell id="7YNYrMvz5-aDHtMyL3fj-144" value="Menghapus Data Sub Kriteria" style="rounded=1;whiteSpace=wrap;html=1;" vertex="1" parent="1c1d494c118603dd-2">
          <mxGeometry x="20" y="720" width="180" height="30" as="geometry" />
        </mxCell>
        <mxCell id="7YNYrMvz5-aDHtMyL3fj-146" value="" style="endArrow=classic;html=1;rounded=0;entryX=1;entryY=0.5;entryDx=0;entryDy=0;exitX=0.106;exitY=0.148;exitDx=0;exitDy=0;exitPerimeter=0;strokeWidth=2;" edge="1" parent="1c1d494c118603dd-2" target="7YNYrMvz5-aDHtMyL3fj-142">
          <mxGeometry width="50" height="50" relative="1" as="geometry">
            <mxPoint x="200" y="654.77" as="sourcePoint" />
            <mxPoint x="231" y="654.77" as="targetPoint" />
            <Array as="points">
              <mxPoint x="240" y="655" />
            </Array>
          </mxGeometry>
        </mxCell>
        <mxCell id="7YNYrMvz5-aDHtMyL3fj-147" value="" style="endArrow=classic;html=1;rounded=0;entryX=1;entryY=0.5;entryDx=0;entryDy=0;exitX=0.106;exitY=0.148;exitDx=0;exitDy=0;exitPerimeter=0;strokeWidth=2;" edge="1" parent="1c1d494c118603dd-2">
          <mxGeometry width="50" height="50" relative="1" as="geometry">
            <mxPoint x="200" y="694.77" as="sourcePoint" />
            <mxPoint x="200" y="695" as="targetPoint" />
            <Array as="points">
              <mxPoint x="240" y="695" />
            </Array>
          </mxGeometry>
        </mxCell>
        <mxCell id="7YNYrMvz5-aDHtMyL3fj-148" value="" style="endArrow=classic;html=1;rounded=0;entryX=1;entryY=0.5;entryDx=0;entryDy=0;exitX=0.106;exitY=0.148;exitDx=0;exitDy=0;exitPerimeter=0;strokeWidth=2;" edge="1" parent="1c1d494c118603dd-2">
          <mxGeometry width="50" height="50" relative="1" as="geometry">
            <mxPoint x="200" y="734.77" as="sourcePoint" />
            <mxPoint x="200" y="735" as="targetPoint" />
            <Array as="points">
              <mxPoint x="240" y="735" />
            </Array>
          </mxGeometry>
        </mxCell>
        <mxCell id="7YNYrMvz5-aDHtMyL3fj-151" value="" style="endArrow=classic;html=1;rounded=0;entryX=0.5;entryY=0;entryDx=0;entryDy=0;exitX=1;exitY=0.5;exitDx=0;exitDy=0;strokeWidth=2;edgeStyle=orthogonalEdgeStyle;" edge="1" parent="1c1d494c118603dd-2" source="7YNYrMvz5-aDHtMyL3fj-53" target="7YNYrMvz5-aDHtMyL3fj-141">
          <mxGeometry width="50" height="50" relative="1" as="geometry">
            <mxPoint x="-190" y="570" as="sourcePoint" />
            <mxPoint x="-140" y="520" as="targetPoint" />
            <Array as="points">
              <mxPoint x="330" y="295" />
              <mxPoint x="330" y="694" />
            </Array>
          </mxGeometry>
        </mxCell>
        <mxCell id="7YNYrMvz5-aDHtMyL3fj-158" value="" style="whiteSpace=wrap;html=1;rounded=0;shadow=0;comic=0;labelBackgroundColor=none;strokeWidth=1;fillColor=#000000;fontFamily=Verdana;fontSize=12;align=center;rotation=90;" vertex="1" parent="1c1d494c118603dd-2">
          <mxGeometry x="181.13" y="839.25" width="110" height="10" as="geometry" />
        </mxCell>
        <mxCell id="7YNYrMvz5-aDHtMyL3fj-159" value="Menambah Data Alternatif" style="rounded=1;whiteSpace=wrap;html=1;" vertex="1" parent="1c1d494c118603dd-2">
          <mxGeometry x="20.380000000000003" y="790" width="180" height="30" as="geometry" />
        </mxCell>
        <mxCell id="7YNYrMvz5-aDHtMyL3fj-160" value="Mengupdate Data Alternatif" style="rounded=1;whiteSpace=wrap;html=1;" vertex="1" parent="1c1d494c118603dd-2">
          <mxGeometry x="20.380000000000003" y="830" width="180" height="30" as="geometry" />
        </mxCell>
        <mxCell id="7YNYrMvz5-aDHtMyL3fj-161" value="Menghapus Data Alternatif" style="rounded=1;whiteSpace=wrap;html=1;" vertex="1" parent="1c1d494c118603dd-2">
          <mxGeometry x="20.380000000000003" y="870" width="180" height="30" as="geometry" />
        </mxCell>
        <mxCell id="7YNYrMvz5-aDHtMyL3fj-162" value="" style="endArrow=classic;html=1;rounded=0;entryX=1;entryY=0.5;entryDx=0;entryDy=0;exitX=0.106;exitY=0.148;exitDx=0;exitDy=0;exitPerimeter=0;strokeWidth=2;" edge="1" parent="1c1d494c118603dd-2" target="7YNYrMvz5-aDHtMyL3fj-159">
          <mxGeometry width="50" height="50" relative="1" as="geometry">
            <mxPoint x="200.38" y="804.77" as="sourcePoint" />
            <mxPoint x="231.38" y="804.77" as="targetPoint" />
            <Array as="points">
              <mxPoint x="240.38" y="805" />
            </Array>
          </mxGeometry>
        </mxCell>
        <mxCell id="7YNYrMvz5-aDHtMyL3fj-163" value="" style="endArrow=classic;html=1;rounded=0;entryX=1;entryY=0.5;entryDx=0;entryDy=0;exitX=0.106;exitY=0.148;exitDx=0;exitDy=0;exitPerimeter=0;strokeWidth=2;" edge="1" parent="1c1d494c118603dd-2">
          <mxGeometry width="50" height="50" relative="1" as="geometry">
            <mxPoint x="200.38" y="844.77" as="sourcePoint" />
            <mxPoint x="200.38" y="845" as="targetPoint" />
            <Array as="points">
              <mxPoint x="240.38" y="845" />
            </Array>
          </mxGeometry>
        </mxCell>
        <mxCell id="7YNYrMvz5-aDHtMyL3fj-164" value="" style="endArrow=classic;html=1;rounded=0;entryX=1;entryY=0.5;entryDx=0;entryDy=0;exitX=0.106;exitY=0.148;exitDx=0;exitDy=0;exitPerimeter=0;strokeWidth=2;" edge="1" parent="1c1d494c118603dd-2">
          <mxGeometry width="50" height="50" relative="1" as="geometry">
            <mxPoint x="200.38" y="884.77" as="sourcePoint" />
            <mxPoint x="200.38" y="885" as="targetPoint" />
            <Array as="points">
              <mxPoint x="240.38" y="885" />
            </Array>
          </mxGeometry>
        </mxCell>
        <mxCell id="7YNYrMvz5-aDHtMyL3fj-166" value="" style="endArrow=classic;html=1;rounded=0;entryX=0.5;entryY=0;entryDx=0;entryDy=0;exitX=1;exitY=0.5;exitDx=0;exitDy=0;strokeWidth=2;edgeStyle=orthogonalEdgeStyle;" edge="1" parent="1c1d494c118603dd-2" source="7YNYrMvz5-aDHtMyL3fj-54" target="7YNYrMvz5-aDHtMyL3fj-158">
          <mxGeometry width="50" height="50" relative="1" as="geometry">
            <mxPoint x="-90" y="580" as="sourcePoint" />
            <mxPoint x="-40" y="530" as="targetPoint" />
            <Array as="points">
              <mxPoint x="340" y="335" />
              <mxPoint x="340" y="844" />
            </Array>
          </mxGeometry>
        </mxCell>
        <mxCell id="7YNYrMvz5-aDHtMyL3fj-171" value="Menambah Data Penilaian" style="rounded=1;whiteSpace=wrap;html=1;" vertex="1" parent="1c1d494c118603dd-2">
          <mxGeometry x="19.999999999999993" y="940" width="180" height="30" as="geometry" />
        </mxCell>
        <mxCell id="7YNYrMvz5-aDHtMyL3fj-172" value="Mengupdate Data Penilaian" style="rounded=1;whiteSpace=wrap;html=1;" vertex="1" parent="1c1d494c118603dd-2">
          <mxGeometry x="20.380000000000003" y="980" width="180" height="30" as="geometry" />
        </mxCell>
        <mxCell id="7YNYrMvz5-aDHtMyL3fj-173" value="" style="whiteSpace=wrap;html=1;rounded=0;shadow=0;comic=0;labelBackgroundColor=none;strokeWidth=1;fillColor=#000000;fontFamily=Verdana;fontSize=12;align=center;rotation=90;" vertex="1" parent="1c1d494c118603dd-2">
          <mxGeometry x="201.13" y="969.63" width="69.25" height="10" as="geometry" />
        </mxCell>
        <mxCell id="7YNYrMvz5-aDHtMyL3fj-174" value="" style="endArrow=classic;html=1;rounded=0;entryX=1;entryY=0.5;entryDx=0;entryDy=0;exitX=0.106;exitY=0.148;exitDx=0;exitDy=0;exitPerimeter=0;strokeWidth=2;" edge="1" parent="1c1d494c118603dd-2">
          <mxGeometry width="50" height="50" relative="1" as="geometry">
            <mxPoint x="200" y="954.79" as="sourcePoint" />
            <mxPoint x="200" y="955.02" as="targetPoint" />
            <Array as="points">
              <mxPoint x="240" y="955.02" />
            </Array>
          </mxGeometry>
        </mxCell>
        <mxCell id="7YNYrMvz5-aDHtMyL3fj-175" value="" style="endArrow=classic;html=1;rounded=0;entryX=1;entryY=0.5;entryDx=0;entryDy=0;exitX=0.106;exitY=0.148;exitDx=0;exitDy=0;exitPerimeter=0;strokeWidth=2;" edge="1" parent="1c1d494c118603dd-2">
          <mxGeometry width="50" height="50" relative="1" as="geometry">
            <mxPoint x="200.38" y="994.79" as="sourcePoint" />
            <mxPoint x="200.38" y="995.02" as="targetPoint" />
            <Array as="points">
              <mxPoint x="240.38" y="995.02" />
            </Array>
          </mxGeometry>
        </mxCell>
        <mxCell id="7YNYrMvz5-aDHtMyL3fj-176" value="" style="endArrow=classic;html=1;rounded=0;entryX=0.5;entryY=0;entryDx=0;entryDy=0;exitX=1;exitY=0.5;exitDx=0;exitDy=0;edgeStyle=orthogonalEdgeStyle;strokeWidth=2;" edge="1" parent="1c1d494c118603dd-2" source="7YNYrMvz5-aDHtMyL3fj-55" target="7YNYrMvz5-aDHtMyL3fj-173">
          <mxGeometry width="50" height="50" relative="1" as="geometry">
            <mxPoint x="280" y="640" as="sourcePoint" />
            <mxPoint x="330" y="590" as="targetPoint" />
            <Array as="points">
              <mxPoint x="350" y="375" />
              <mxPoint x="350" y="975" />
            </Array>
          </mxGeometry>
        </mxCell>
        <mxCell id="Rxr6hjut75NhFScURJZj-6" value="" style="endArrow=classic;html=1;rounded=0;entryX=0;entryY=0.5;entryDx=0;entryDy=0;strokeWidth=2;fontStyle=0;exitX=1;exitY=0.5;exitDx=0;exitDy=0;" edge="1" parent="1c1d494c118603dd-1" source="7YNYrMvz5-aDHtMyL3fj-38" target="7YNYrMvz5-aDHtMyL3fj-39">
          <mxGeometry width="50" height="50" relative="1" as="geometry">
            <mxPoint x="170" y="125" as="sourcePoint" />
            <mxPoint x="350" y="125" as="targetPoint" />
          </mxGeometry>
        </mxCell>
        <mxCell id="Rxr6hjut75NhFScURJZj-11" value="" style="endArrow=classic;html=1;rounded=0;entryX=0;entryY=0.5;entryDx=0;entryDy=0;strokeWidth=2;fontStyle=0;exitX=1;exitY=0.5;exitDx=0;exitDy=0;" edge="1" parent="1c1d494c118603dd-1" source="7YNYrMvz5-aDHtMyL3fj-40" target="Rxr6hjut75NhFScURJZj-7">
          <mxGeometry width="50" height="50" relative="1" as="geometry">
            <mxPoint x="180" y="210" as="sourcePoint" />
            <mxPoint x="203" y="250" as="targetPoint" />
          </mxGeometry>
        </mxCell>
        <mxCell id="7YNYrMvz5-aDHtMyL3fj-43" value="" style="endArrow=classic;html=1;rounded=0;entryX=0.5;entryY=0;entryDx=0;entryDy=0;exitX=0.5;exitY=1;exitDx=0;exitDy=0;edgeStyle=orthogonalEdgeStyle;strokeWidth=2;" edge="1" parent="1c1d494c118603dd-1" source="7YNYrMvz5-aDHtMyL3fj-39" target="7YNYrMvz5-aDHtMyL3fj-40">
          <mxGeometry width="50" height="50" relative="1" as="geometry">
            <mxPoint x="270" y="200" as="sourcePoint" />
            <mxPoint x="320" y="150" as="targetPoint" />
            <Array as="points">
              <mxPoint x="500" y="160" />
              <mxPoint x="126" y="160" />
            </Array>
          </mxGeometry>
        </mxCell>
        <mxCell id="7YNYrMvz5-aDHtMyL3fj-65" value="" style="endArrow=classic;html=1;rounded=0;exitX=0.5;exitY=1;exitDx=0;exitDy=0;edgeStyle=orthogonalEdgeStyle;strokeWidth=2;entryX=0.25;entryY=1;entryDx=0;entryDy=0;" edge="1" parent="1c1d494c118603dd-1" source="7YNYrMvz5-aDHtMyL3fj-42" target="7YNYrMvz5-aDHtMyL3fj-95">
          <mxGeometry width="50" height="50" relative="1" as="geometry">
            <mxPoint x="120" y="340" as="sourcePoint" />
            <mxPoint x="20" y="390" as="targetPoint" />
            <Array as="points">
              <mxPoint x="500" y="330" />
              <mxPoint x="300" y="330" />
              <mxPoint x="300" y="240" />
              <mxPoint x="-20" y="240" />
              <mxPoint x="-20" y="377" />
            </Array>
          </mxGeometry>
        </mxCell>
        <mxCell id="7YNYrMvz5-aDHtMyL3fj-122" value="" style="endArrow=classic;html=1;rounded=0;exitX=0;exitY=0.5;exitDx=0;exitDy=0;edgeStyle=orthogonalEdgeStyle;strokeWidth=2;entryX=0.5;entryY=1;entryDx=0;entryDy=0;" edge="1" parent="1c1d494c118603dd-1" source="7YNYrMvz5-aDHtMyL3fj-98" target="7YNYrMvz5-aDHtMyL3fj-119">
          <mxGeometry width="50" height="50" relative="1" as="geometry">
            <mxPoint x="230" y="520" as="sourcePoint" />
            <mxPoint x="500" y="600" as="targetPoint" />
            <Array as="points">
              <mxPoint x="10" y="525" />
              <mxPoint x="10" y="640" />
              <mxPoint x="506" y="640" />
            </Array>
          </mxGeometry>
        </mxCell>
        <mxCell id="7YNYrMvz5-aDHtMyL3fj-124" value="" style="endArrow=classic;html=1;rounded=0;entryX=0;entryY=0.5;entryDx=0;entryDy=0;exitX=0;exitY=0.5;exitDx=0;exitDy=0;edgeStyle=orthogonalEdgeStyle;strokeWidth=2;" edge="1" parent="1c1d494c118603dd-1" source="7YNYrMvz5-aDHtMyL3fj-99" target="7YNYrMvz5-aDHtMyL3fj-119">
          <mxGeometry width="50" height="50" relative="1" as="geometry">
            <mxPoint x="230" y="520" as="sourcePoint" />
            <mxPoint x="280" y="470" as="targetPoint" />
            <Array as="points">
              <mxPoint x="10" y="565" />
              <mxPoint x="10" y="640" />
              <mxPoint x="390" y="640" />
              <mxPoint x="390" y="565" />
            </Array>
          </mxGeometry>
        </mxCell>
        <mxCell id="7YNYrMvz5-aDHtMyL3fj-125" value="" style="endArrow=classic;html=1;rounded=0;exitX=0;exitY=0.5;exitDx=0;exitDy=0;strokeWidth=2;edgeStyle=orthogonalEdgeStyle;entryX=1;entryY=0.5;entryDx=0;entryDy=0;" edge="1" parent="1c1d494c118603dd-1" source="7YNYrMvz5-aDHtMyL3fj-100" target="7YNYrMvz5-aDHtMyL3fj-119">
          <mxGeometry width="50" height="50" relative="1" as="geometry">
            <mxPoint x="230" y="570" as="sourcePoint" />
            <mxPoint x="500" y="570" as="targetPoint" />
            <Array as="points">
              <mxPoint x="10" y="605" />
              <mxPoint x="10" y="640" />
              <mxPoint x="610" y="640" />
              <mxPoint x="610" y="565" />
            </Array>
          </mxGeometry>
        </mxCell>
        <mxCell id="7YNYrMvz5-aDHtMyL3fj-154" value="" style="endArrow=classic;html=1;rounded=0;exitX=0;exitY=0.5;exitDx=0;exitDy=0;strokeWidth=2;edgeStyle=orthogonalEdgeStyle;entryX=0.5;entryY=1;entryDx=0;entryDy=0;" edge="1" parent="1c1d494c118603dd-1" source="7YNYrMvz5-aDHtMyL3fj-144" target="7YNYrMvz5-aDHtMyL3fj-150">
          <mxGeometry width="50" height="50" relative="1" as="geometry">
            <mxPoint x="140" y="700" as="sourcePoint" />
            <mxPoint x="500" y="740" as="targetPoint" />
            <Array as="points">
              <mxPoint x="10" y="755" />
              <mxPoint x="10" y="790" />
              <mxPoint x="506" y="790" />
            </Array>
          </mxGeometry>
        </mxCell>
        <mxCell id="7YNYrMvz5-aDHtMyL3fj-156" value="" style="endArrow=classic;html=1;rounded=0;entryX=0;entryY=0.5;entryDx=0;entryDy=0;exitX=0;exitY=0.5;exitDx=0;exitDy=0;strokeWidth=2;edgeStyle=orthogonalEdgeStyle;" edge="1" parent="1c1d494c118603dd-1" source="7YNYrMvz5-aDHtMyL3fj-143" target="7YNYrMvz5-aDHtMyL3fj-150">
          <mxGeometry width="50" height="50" relative="1" as="geometry">
            <mxPoint x="210" y="660" as="sourcePoint" />
            <mxPoint x="260" y="610" as="targetPoint" />
            <Array as="points">
              <mxPoint x="10" y="715" />
              <mxPoint x="10" y="790" />
              <mxPoint x="400" y="790" />
              <mxPoint x="400" y="715" />
            </Array>
          </mxGeometry>
        </mxCell>
        <mxCell id="7YNYrMvz5-aDHtMyL3fj-157" value="" style="endArrow=classic;html=1;rounded=0;entryX=1;entryY=0.5;entryDx=0;entryDy=0;exitX=0;exitY=0.5;exitDx=0;exitDy=0;strokeWidth=2;edgeStyle=orthogonalEdgeStyle;" edge="1" parent="1c1d494c118603dd-1" source="7YNYrMvz5-aDHtMyL3fj-142" target="7YNYrMvz5-aDHtMyL3fj-150">
          <mxGeometry width="50" height="50" relative="1" as="geometry">
            <mxPoint x="110" y="620" as="sourcePoint" />
            <mxPoint x="160" y="570" as="targetPoint" />
            <Array as="points">
              <mxPoint x="10" y="675" />
              <mxPoint x="10" y="790" />
              <mxPoint x="610" y="790" />
              <mxPoint x="610" y="715" />
            </Array>
          </mxGeometry>
        </mxCell>
        <mxCell id="7YNYrMvz5-aDHtMyL3fj-167" value="" style="endArrow=classic;html=1;rounded=0;entryX=0;entryY=0.5;entryDx=0;entryDy=0;exitX=0;exitY=0.5;exitDx=0;exitDy=0;strokeWidth=2;edgeStyle=orthogonalEdgeStyle;" edge="1" parent="1c1d494c118603dd-1" source="7YNYrMvz5-aDHtMyL3fj-159" target="7YNYrMvz5-aDHtMyL3fj-165">
          <mxGeometry width="50" height="50" relative="1" as="geometry">
            <mxPoint x="-90" y="750" as="sourcePoint" />
            <mxPoint x="-40" y="700" as="targetPoint" />
            <Array as="points">
              <mxPoint x="10" y="825" />
              <mxPoint x="10" y="940" />
              <mxPoint x="400" y="940" />
              <mxPoint x="400" y="865" />
            </Array>
          </mxGeometry>
        </mxCell>
        <mxCell id="7YNYrMvz5-aDHtMyL3fj-168" value="" style="endArrow=classic;html=1;rounded=0;entryX=0.5;entryY=1;entryDx=0;entryDy=0;exitX=0;exitY=0.5;exitDx=0;exitDy=0;strokeWidth=2;edgeStyle=orthogonalEdgeStyle;" edge="1" parent="1c1d494c118603dd-1" source="7YNYrMvz5-aDHtMyL3fj-160" target="7YNYrMvz5-aDHtMyL3fj-165">
          <mxGeometry width="50" height="50" relative="1" as="geometry">
            <mxPoint x="-90" y="750" as="sourcePoint" />
            <mxPoint x="-40" y="700" as="targetPoint" />
            <Array as="points">
              <mxPoint x="10" y="865" />
              <mxPoint x="10" y="940" />
              <mxPoint x="506" y="940" />
            </Array>
          </mxGeometry>
        </mxCell>
        <mxCell id="7YNYrMvz5-aDHtMyL3fj-169" value="" style="endArrow=classic;html=1;rounded=0;entryX=1;entryY=0.5;entryDx=0;entryDy=0;exitX=0;exitY=0.5;exitDx=0;exitDy=0;strokeWidth=2;edgeStyle=orthogonalEdgeStyle;" edge="1" parent="1c1d494c118603dd-1" source="7YNYrMvz5-aDHtMyL3fj-161" target="7YNYrMvz5-aDHtMyL3fj-165">
          <mxGeometry width="50" height="50" relative="1" as="geometry">
            <mxPoint x="60" y="980" as="sourcePoint" />
            <mxPoint x="-40" y="700" as="targetPoint" />
            <Array as="points">
              <mxPoint x="10" y="905" />
              <mxPoint x="10" y="940" />
              <mxPoint x="610" y="940" />
              <mxPoint x="610" y="865" />
            </Array>
          </mxGeometry>
        </mxCell>
        <mxCell id="7YNYrMvz5-aDHtMyL3fj-178" value="" style="endArrow=classic;html=1;rounded=0;entryX=0;entryY=0.5;entryDx=0;entryDy=0;exitX=0;exitY=0.5;exitDx=0;exitDy=0;strokeWidth=2;edgeStyle=orthogonalEdgeStyle;" edge="1" parent="1c1d494c118603dd-1" source="7YNYrMvz5-aDHtMyL3fj-171" target="7YNYrMvz5-aDHtMyL3fj-177">
          <mxGeometry width="50" height="50" relative="1" as="geometry">
            <mxPoint x="280" y="1000" as="sourcePoint" />
            <mxPoint x="330" y="950" as="targetPoint" />
            <Array as="points">
              <mxPoint x="10" y="975" />
              <mxPoint x="10" y="1050" />
              <mxPoint x="400" y="1050" />
              <mxPoint x="400" y="995" />
            </Array>
          </mxGeometry>
        </mxCell>
        <mxCell id="7YNYrMvz5-aDHtMyL3fj-179" value="" style="endArrow=classic;html=1;rounded=0;entryX=1;entryY=0.5;entryDx=0;entryDy=0;exitX=0;exitY=0.5;exitDx=0;exitDy=0;strokeWidth=2;edgeStyle=orthogonalEdgeStyle;" edge="1" parent="1c1d494c118603dd-1" source="7YNYrMvz5-aDHtMyL3fj-172" target="7YNYrMvz5-aDHtMyL3fj-177">
          <mxGeometry width="50" height="50" relative="1" as="geometry">
            <mxPoint x="280" y="1000" as="sourcePoint" />
            <mxPoint x="330" y="950" as="targetPoint" />
            <Array as="points">
              <mxPoint x="10" y="1015" />
              <mxPoint x="10" y="1050" />
              <mxPoint x="610" y="1050" />
              <mxPoint x="610" y="995" />
            </Array>
          </mxGeometry>
        </mxCell>
        <mxCell id="7YNYrMvz5-aDHtMyL3fj-181" value="" style="endArrow=classic;html=1;rounded=0;entryX=0;entryY=0.5;entryDx=0;entryDy=0;exitX=1;exitY=0.5;exitDx=0;exitDy=0;edgeStyle=orthogonalEdgeStyle;strokeWidth=2;" edge="1" parent="1c1d494c118603dd-1" source="7YNYrMvz5-aDHtMyL3fj-56" target="7YNYrMvz5-aDHtMyL3fj-180">
          <mxGeometry width="50" height="50" relative="1" as="geometry">
            <mxPoint x="280" y="760" as="sourcePoint" />
            <mxPoint x="330" y="710" as="targetPoint" />
            <Array as="points">
              <mxPoint x="360" y="435" />
              <mxPoint x="360" y="1085" />
            </Array>
          </mxGeometry>
        </mxCell>
        <mxCell id="7YNYrMvz5-aDHtMyL3fj-184" value="" style="endArrow=classic;html=1;rounded=0;exitX=1;exitY=0.5;exitDx=0;exitDy=0;entryX=0;entryY=0.5;entryDx=0;entryDy=0;strokeWidth=2;edgeStyle=orthogonalEdgeStyle;" edge="1" parent="1c1d494c118603dd-1" source="7YNYrMvz5-aDHtMyL3fj-57" target="7YNYrMvz5-aDHtMyL3fj-182">
          <mxGeometry width="50" height="50" relative="1" as="geometry">
            <mxPoint x="280" y="760" as="sourcePoint" />
            <mxPoint x="330" y="710" as="targetPoint" />
            <Array as="points">
              <mxPoint x="370" y="475" />
              <mxPoint x="370" y="1135" />
            </Array>
          </mxGeometry>
        </mxCell>
        <mxCell id="1c1d494c118603dd-3" value="Sistem" style="swimlane;html=1;startSize=20;" vertex="1" parent="1c1d494c118603dd-1">
          <mxGeometry x="311.5" y="20" width="395.71" height="1210" as="geometry" />
        </mxCell>
        <mxCell id="Rxr6hjut75NhFScURJZj-7" value="Valid ?" style="rhombus;whiteSpace=wrap;html=1;fontStyle=0" vertex="1" parent="1c1d494c118603dd-3">
          <mxGeometry x="148.5" y="150" width="80" height="80" as="geometry" />
        </mxCell>
        <mxCell id="Rxr6hjut75NhFScURJZj-10" value="" style="endArrow=classic;html=1;rounded=0;entryX=1;entryY=0.5;entryDx=0;entryDy=0;exitX=1;exitY=0.5;exitDx=0;exitDy=0;edgeStyle=orthogonalEdgeStyle;fontStyle=1;strokeWidth=2;" edge="1" parent="1c1d494c118603dd-3" source="Rxr6hjut75NhFScURJZj-7" target="7YNYrMvz5-aDHtMyL3fj-39">
          <mxGeometry width="50" height="50" relative="1" as="geometry">
            <mxPoint x="-1.7500000000000009" y="280" as="sourcePoint" />
            <mxPoint x="233.25" y="105" as="targetPoint" />
            <Array as="points">
              <mxPoint x="287.75" y="190" />
              <mxPoint x="287.75" y="105" />
            </Array>
          </mxGeometry>
        </mxCell>
        <mxCell id="Rxr6hjut75NhFScURJZj-13" value="" style="endArrow=classic;html=1;rounded=0;entryX=0.5;entryY=0;entryDx=0;entryDy=0;exitX=0.5;exitY=1;exitDx=0;exitDy=0;strokeWidth=2;fontStyle=0" edge="1" parent="1c1d494c118603dd-3" source="Rxr6hjut75NhFScURJZj-7" target="7YNYrMvz5-aDHtMyL3fj-42">
          <mxGeometry width="50" height="50" relative="1" as="geometry">
            <mxPoint x="-1.7500000000000009" y="280" as="sourcePoint" />
            <mxPoint x="183.25" y="260" as="targetPoint" />
          </mxGeometry>
        </mxCell>
        <mxCell id="Rxr6hjut75NhFScURJZj-14" value="&lt;font style=&quot;font-size: 10px;&quot;&gt;T&lt;/font&gt;" style="text;html=1;strokeColor=none;fillColor=none;align=center;verticalAlign=middle;whiteSpace=wrap;rounded=0;fontStyle=0" vertex="1" parent="1c1d494c118603dd-3">
          <mxGeometry x="184.25" y="230" width="30" height="10" as="geometry" />
        </mxCell>
        <mxCell id="Rxr6hjut75NhFScURJZj-16" value="&lt;font style=&quot;font-size: 10px;&quot;&gt;F&lt;/font&gt;" style="text;html=1;strokeColor=none;fillColor=none;align=center;verticalAlign=middle;whiteSpace=wrap;rounded=0;fontStyle=0" vertex="1" parent="1c1d494c118603dd-3">
          <mxGeometry x="220.25" y="176" width="30" height="10" as="geometry" />
        </mxCell>
        <mxCell id="7YNYrMvz5-aDHtMyL3fj-39" value="Menampilkan Form Login" style="rounded=1;whiteSpace=wrap;html=1;" vertex="1" parent="1c1d494c118603dd-3">
          <mxGeometry x="142.75" y="90" width="91.5" height="30" as="geometry" />
        </mxCell>
        <mxCell id="7YNYrMvz5-aDHtMyL3fj-42" value="Menampilan Menu Utama" style="rounded=1;whiteSpace=wrap;html=1;" vertex="1" parent="1c1d494c118603dd-3">
          <mxGeometry x="118.5" y="260" width="140" height="30" as="geometry" />
        </mxCell>
        <mxCell id="7YNYrMvz5-aDHtMyL3fj-119" value="Menyimpan &amp;amp; Menampilkan Data Kriteria" style="rounded=1;whiteSpace=wrap;html=1;" vertex="1" parent="1c1d494c118603dd-3">
          <mxGeometry x="118.5" y="530" width="151.5" height="30" as="geometry" />
        </mxCell>
        <mxCell id="7YNYrMvz5-aDHtMyL3fj-150" value="Menyimpan &amp;amp; Menampilkan Data Sub Kriteria" style="rounded=1;whiteSpace=wrap;html=1;" vertex="1" parent="1c1d494c118603dd-3">
          <mxGeometry x="118.5" y="680" width="151.5" height="30" as="geometry" />
        </mxCell>
        <mxCell id="7YNYrMvz5-aDHtMyL3fj-165" value="Menyimpan &amp;amp; Menampilkan Data Alternatif" style="rounded=1;whiteSpace=wrap;html=1;" vertex="1" parent="1c1d494c118603dd-3">
          <mxGeometry x="118.5" y="830" width="151.5" height="30" as="geometry" />
        </mxCell>
        <mxCell id="7YNYrMvz5-aDHtMyL3fj-177" value="Menyimpan Data Penilaian" style="rounded=1;whiteSpace=wrap;html=1;" vertex="1" parent="1c1d494c118603dd-3">
          <mxGeometry x="118.5" y="960" width="140" height="30" as="geometry" />
        </mxCell>
        <mxCell id="7YNYrMvz5-aDHtMyL3fj-180" value="Menampilkan Proses Perhitungan Detail ARAS" style="rounded=1;whiteSpace=wrap;html=1;" vertex="1" parent="1c1d494c118603dd-3">
          <mxGeometry x="111.38000000000001" y="1050" width="165.75" height="30" as="geometry" />
        </mxCell>
        <mxCell id="7YNYrMvz5-aDHtMyL3fj-182" value="Menampilkan Hasil Akhir Perangkingan&amp;nbsp;" style="rounded=1;whiteSpace=wrap;html=1;" vertex="1" parent="1c1d494c118603dd-3">
          <mxGeometry x="111.38000000000002" y="1100" width="165.75" height="30" as="geometry" />
        </mxCell>
        <mxCell id="7YNYrMvz5-aDHtMyL3fj-183" value="" style="verticalLabelPosition=bottom;html=1;verticalAlign=top;strokeWidth=2;shape=mxgraph.lean_mapping.sequenced_pull_ball;" vertex="1" parent="1c1d494c118603dd-3">
          <mxGeometry x="177.06999999999994" y="1162" width="34.37" height="35" as="geometry" />
        </mxCell>
        <mxCell id="7YNYrMvz5-aDHtMyL3fj-187" value="" style="endArrow=classic;html=1;rounded=0;entryX=0.5;entryY=0;entryDx=0;entryDy=0;exitX=0.5;exitY=1;exitDx=0;exitDy=0;strokeWidth=2;" edge="1" parent="1c1d494c118603dd-3" source="7YNYrMvz5-aDHtMyL3fj-182" target="7YNYrMvz5-aDHtMyL3fj-183">
          <mxGeometry width="50" height="50" relative="1" as="geometry">
            <mxPoint x="-31.5" y="1100" as="sourcePoint" />
            <mxPoint x="18.5" y="1050" as="targetPoint" />
          </mxGeometry>
        </mxCell>
      </root>
    </mxGraphModel>
  </diagram>
</mxfile>
